<svg version="1.1" id="Calq
 xmlns="http://www.w3.org/2000/svg" x="0px" y="0px" viewBox="0 0 411.599 218.61" style="enable-background:new 0 0 411.599 218.61" xml:space="preserve"><path style="fill-rule:evenodd;clip-rule:evenodd;fill:#ED7D23" d="M231.319,36.998c18.36,5.939,31.86,14.041,39.959,23.221 c5.401,5.939,9.181,11.338,11.343,17.279c3.239,7.021,4.86,15.66,4.86,25.381c0,6.479-1.621,12.958-4.32,19.439 c-2.702,7.02-7.022,13.5-11.883,18.361c-10.797,10.799-25.918,18.898-45.896,24.84c-22.144,5.939-49.144,9.18-81,8.641 c-21.604-0.543-48.063-2.701-78.842-7.562c-1.622,0-2.158,0.541-2.158,1.082c0,0.54,0.536,1.078,1.617,1.619 c22.68,5.939,49.14,10.799,78.842,13.5c27.54,2.16,52.378,1.619,74.518-1.079c21.059-2.7,39.418-8.103,54.54-15.122 c15.122-7.02,26.46-16.201,34.559-26.459c7.563-10.801,11.343-22.68,11.343-35.64c0-26.459-12.96-45.36-39.42-57.779 c-9.18-4.322-18.9-7.561-29.702-9.18L232.4,35.38l-1.622,0.538L231.319,36.998L231.319,36.998z"/><path style="fill-rule:evenodd;clip-rule:evenodd;fill:#ED7D23" d="M335,113.678c0.541-1.082,0.541-1.082,1.082,0 c2.157,4.319,3.779,8.639,5.4,12.418l-0.541,2.16c-2.702,5.402-6.481,10.8-10.801,16.201c-0.541,1.08-1.077,1.619-1.617,1.08 l-7.023-10.261c-0.54-0.54,0-1.618,0.541-2.7C326.901,126.637,331.22,120.698,335,113.678L335,113.678z"/><path style="fill-rule:evenodd;clip-rule:evenodd;fill:#ED7D23" d="M335,95.317c0.541,1.079,0.541,1.079,1.082,0.54 c2.697-4.86,4.319-9.18,5.4-12.962l-0.541-2.16c-2.702-5.399-6.481-10.799-10.801-16.198l-1.617-0.541l-7.023,9.721l0.541,2.698 L335,95.317L335,95.317z"/><path style="fill-rule:evenodd;clip-rule:evenodd;fill:#ED7D23" d="M345.802,89.917c1.617,4.86,3.238,9.18,3.779,13.5v2.16 c-0.541,3.781-2.162,8.642-4.32,13.5c-0.541,0.539-0.541,1.082-0.541,0.539c-0.54-4.318-2.157-8.639-4.319-13.499v-2.7 c2.162-4.86,3.779-9.18,4.86-14.038C345.262,88.838,345.262,88.838,345.802,89.917L345.802,89.917z"/><path style="fill-rule:evenodd;clip-rule:evenodd;fill:#0073B1" d="M298.279,102.878l16.203-19.982 c0.541-1.079,1.617-1.079,2.698,0c4.86,6.482,9.721,12.962,13.5,19.982c0.54,1.079,0.54,2.16,0,3.238 c-3.779,6.479-13.885,19.862-13.974,20.013c-0.633,1.07-1.75,0.915-2.224-0.034l-7.562-8.639l-8.641-10.8 C297.202,105.577,297.202,104.498,298.279,102.878L298.279,102.878z"/><path style="fill-rule:evenodd;clip-rule:evenodd;fill:#0073B1" d="M186.502,86.68v-9.72c0-8.1-3.78-12.42-10.8-12.42 c-3.78,0-6.48,1.08-9.18,2.69l1.62,5.41c1.62-1.62,3.78-2.16,6.48-2.16c1.62,0,3.24,0.54,3.78,1.07c0.54,0.55,1.08,1.63,1.08,3.25 c-5.94,0-9.72,1.62-12.42,4.32c-1.62,1.62-2.16,3.78-2.7,6.48c0,2.7,0.54,4.32,2.16,5.94s3.78,2.7,6.48,2.7 c2.7,0,5.4-1.08,7.02-3.24l0.54,2.7h6.48v-0.54L186.502,86.68z M179.482,85.06c-0.54,2.16-2.16,3.24-4.86,3.24 c-2.16,0-3.24-1.08-3.24-3.24l1.08-2.7c1.62-1.62,3.78-2.16,7.02-2.16V85.06z"/><path style="fill-rule:evenodd;clip-rule:evenodd;fill:#0073B1" d="M207.022,65.077h-1.621c-2.698,0-4.86,1.621-6.482,4.86 l-0.536-4.32h-5.941v28.081h7.018V76.957c0.54-3.239,2.703-4.86,5.401-4.86h2.162L207.022,65.077L207.022,65.077z"/><path style="fill-rule:evenodd;clip-rule:evenodd;fill:#0073B1" d="M231.321,68.86c-2.16-2.7-5.4-3.78-9.18-3.78 c-3.78,0-7.02,1.08-9.72,3.78s-3.78,6.48-3.78,10.8s1.08,8.1,3.78,10.8c2.7,2.7,5.4,3.78,9.18,3.78c3.78,0,6.48-1.08,9.18-3.24 c2.7-2.7,4.32-6.48,4.32-11.34S234.021,71.55,231.321,68.86z M225.922,86.14c-1.08,1.62-2.16,2.16-3.78,2.7 c-1.62-0.54-3.24-1.08-4.32-2.7c-1.08-1.62-1.62-3.78-1.62-6.48s0.54-4.32,1.08-5.94c1.08-2.16,2.7-3.24,4.86-3.24 c1.62,0,3.24,1.08,4.32,3.24c0.54,1.62,1.08,3.24,1.08,5.94S227.002,84.52,225.922,86.14z"/><path style="fill-rule:evenodd;clip-rule:evenodd;fill:#0073B1" d="M242.121,68.858c-2.702,2.698-4.319,6.48-4.319,11.34 c0,4.32,1.08,7.559,3.779,10.259c2.697,2.701,5.941,3.779,9.721,3.779c2.697,0.54,5.4,0,7.018-1.079l-1.081-5.939 c-1.617,0.538-3.239,1.079-4.856,1.079c-2.162,0-3.783-0.541-5.4-2.16c-1.081-1.619-1.621-3.779-1.621-6.48 c0-2.701,0.54-4.86,2.162-6.48c1.076-1.622,2.697-2.16,4.859-2.16c1.617,0,3.239,0.538,4.856,1.079l1.081-5.939 c-1.617-0.541-3.238-1.081-5.938-1.081C248.062,65.077,244.819,66.158,242.121,68.858L242.121,68.858z"/><polygon style="fill-rule:evenodd;clip-rule:evenodd;fill:#0073B1" points="122.779,54.277 122.779,93.698 129.801,93.698 129.262,62.917 137.9,93.698 144.919,93.698 153.562,62.917 153.562,93.698 160.04,93.698 160.04,54.277 149.238,54.277 141.68,82.358 133.581,54.277 122.779,54.277"/><rect x="129.801" y="106.658" style="fill-rule:evenodd;clip-rule:evenodd;fill:#0073B1" width="7.018" height="37.8"/><path style="fill-rule:evenodd;clip-rule:evenodd;fill:#0073B1" d="M182.181,115.837c-4.32,0-7.559,1.08-10.261,3.779 c-2.698,2.701-4.32,6.48-4.32,10.801c0,4.86,1.081,8.102,3.784,10.802c2.698,2.698,5.937,3.779,9.716,3.779 c2.703,0,5.401-0.54,7.022-1.081l-1.081-5.939c-1.622,0.541-3.239,1.079-4.86,1.079c-2.158,0-3.779-1.079-5.401-2.698 c-1.077-1.621-1.617-3.242-1.617-5.941c0-2.698,0.54-4.86,2.158-6.478c1.081-1.621,2.703-2.161,4.86-2.161 c1.622,0,3.239,0.54,4.86,1.081l1.081-5.941C186.5,116.38,184.883,115.837,182.181,115.837L182.181,115.837z"/><path style="fill-rule:evenodd;clip-rule:evenodd;fill:#0073B1" d="M199.341,144.87c1.19,0.44,2.47,0.67,3.9,0.67h0.27 C201.961,145.52,200.602,145.31,199.341,144.87z"/><path style="fill-rule:evenodd;clip-rule:evenodd;fill:#0073B1" d="M203.511,145.54h0.27c1.43,0,2.71-0.23,3.89-0.67 C206.411,145.31,205.052,145.52,203.511,145.54z"/><path style="fill-rule:evenodd;clip-rule:evenodd;fill:#0073B1" d="M215.031,122.45c-0.55-1.04-1.24-1.99-2.08-2.83 c-2.63-2.63-5.77-3.73-9.44-3.78c-3.67,0.05-6.82,1.15-9.45,3.78c-2.7,2.7-3.78,6.48-3.78,10.8c0,0.3,0.01,0.6,0.02,0.9 c0.01,0.29,0.03,0.58,0.05,0.87c0.34,3.9,1.8,7.01,4.04,9.35c0.07,0.08,0.14,0.15,0.21,0.22c1.5,1.5,2.99,2.5,4.67,3.08 c0.02,0.02,0.05,0.02,0.07,0.03c1.26,0.44,2.62,0.65,4.17,0.67c1.54-0.02,2.9-0.23,4.16-0.67c0.03-0.01,0.06-0.02,0.08-0.03 c1.68-0.59,3.17-1.58,4.67-3.08c0.11-0.11,0.21-0.22,0.31-0.33c2.19-2.32,3.6-5.4,3.94-9.24c0.02-0.29,0.04-0.58,0.05-0.87 c0.01-0.3,0.02-0.6,0.02-0.9C216.742,127.45,216.232,124.74,215.031,122.45z M207.562,136.9c-1.01,1.52-2.5,2.56-4.02,2.69h-0.06 c-1.52-0.13-3.01-1.17-4.02-2.69c-1.08-1.62-1.62-3.78-1.62-6.48s0.54-4.32,1.08-5.94c0.14-0.2,0.28-0.4,0.43-0.58 c0.15-0.19,0.32-0.37,0.48-0.52c0.96-0.94,2.18-1.53,3.68-1.59c1.5,0.06,2.72,0.65,3.68,1.59c0.17,0.16,0.33,0.34,0.48,0.52 c0.15,0.18,0.29,0.38,0.43,0.58c0.54,1.62,1.08,3.24,1.08,5.94S208.641,135.28,207.562,136.9z"/><path style="fill-rule:evenodd;clip-rule:evenodd;fill:#0073B1" d="M250.22,115.837c-2.157,0-3.779,0.543-5.4,1.621l-2.698,3.24 c-1.622-3.781-3.779-5.4-7.559-5.4c-3.243,0-5.941,1.619-7.564,4.318v-3.236h-5.936v28.078h7.018v-18.901 c0.54-2.698,2.157-3.779,4.319-3.779c2.698,0,4.319,2.161,3.779,6.479v16.201h7.022v-16.739l0.536-2.162 c0.54-2.698,2.162-3.779,3.784-3.779c2.697,0,4.319,2.161,4.319,7.021v15.66h7.018V127.72c0-3.78-1.082-7.021-2.699-9.181 C254.54,116.917,252.383,115.837,250.22,115.837L250.22,115.837z"/><polygon style="fill-rule:evenodd;clip-rule:evenodd;fill:#0073B1" points="77.96,105.577 77.96,112.056 88.221,112.056 88.221,144.458 95.238,144.458 95.238,112.056 105.499,112.056 105.499,105.577 77.96,105.577"/><path style="fill-rule:evenodd;clip-rule:evenodd;fill:#0073B1" d="M164.901,129.34c0-3.78-0.54-6.48-2.16-9.18 c-2.16-3.24-4.86-4.86-8.64-4.86c-4.32,0-7.56,1.62-9.72,4.86c-2.16,2.7-3.24,6.48-3.24,10.26c0,4.86,1.08,8.1,3.78,10.8 c2.16,2.7,5.4,3.78,9.72,3.78c3.24,0,5.94-0.54,8.64-1.62l-1.08-5.4c-2.16,0.54-4.32,1.08-7.02,1.08c-2.16,0-3.78-0.54-4.86-1.62 c-1.62-1.62-2.16-3.24-2.16-4.86h16.74V129.34z M148.161,127.18c0.54-3.78,2.16-5.94,5.4-5.94c1.62,0,2.7,0.54,3.24,1.08 c0.54,1.08,1.08,2.7,1.62,4.86H148.161z"/><path style="fill-rule:evenodd;clip-rule:evenodd;fill:#0073B1" d="M125.482,129.34c0-3.78-1.08-6.48-2.7-9.18 c-1.62-3.24-4.86-4.86-8.64-4.86c-3.78,0-7.02,1.62-9.72,4.86c-2.16,2.7-3.24,6.48-2.7,10.26c-0.54,4.86,0.54,8.1,3.24,10.8 s5.94,3.78,9.72,3.78c3.24,0,5.94-0.54,8.64-1.62h0.54l-1.62-5.4c-1.62,0.54-3.78,1.08-6.48,1.08c-2.16,0-3.78-0.54-5.4-1.62 c-1.08-1.62-1.62-3.24-2.16-4.86h16.74L125.482,129.34z M108.201,127.18c0.54-3.78,2.7-5.94,5.4-5.94c1.62,0,2.7,0.54,3.24,1.08 c1.08,1.08,1.62,2.7,1.62,4.86H108.201z"/></svg>