<svg version="1.1" id="Layer_2" xmlns="http://www.w3.org/2000/svg" x="0px" y="0px" viewBox="0 0 500 500" style="enable-background:new 0 0 500 500" xml:space="preserve"><style>.st3{fill:#005CAA}.st4{fill:#FECF00}</style><path d="M61,251.9c0,0-28.1,4.2-49.9,17.6c6.7-1,66.8-8.8,84,32C95.2,301.5,119.4,267.4,61,251.9z" style="fill:#BDBCBC"/><linearGradient id="SVGID_1_" gradientUnits="userSpaceOnUse" x1="1.4949" y1="257.699" x2="149.1015" y2="272.0663"><stop offset="0.4389" style="stop-color:#005CAA"/><stop offset="0.7753" style="stop-color:#02A0DD"/></linearGradient><path d="M95.2,301.5c0,0,48.9-17.5,50-41.7c1.1-24.2-58-29.8-78.6-29.3c-20.6,0.5-51.5,2.6-51.5,7S44.6,246.7,55,250	c11.6,3.7,43.4,13,43.4,35.8C98.3,295.2,95.2,301.5,95.2,301.5z" style="fill:url(#SVGID_1_)"/><radialGradient id="SVGID_2_" cx="129.4357" cy="209.9642" r="18.0297" fx="118.576" fy="208.006" gradientTransform="matrix(-0.3162 0.9487 -0.9743 -0.3248 374.9332 155.3595)" gradientUnits="userSpaceOnUse"><stop offset="0.2926" style="stop-color:#FFE900"/><stop offset="1" style="stop-color:#F8AC00"/></radialGradient><path d="M130,190.7c0,0,13.1-1.4,13.7,15.7s-8,24.1-11.3,24s-14.6-6.9-15.1-23.6C116.9,190,130,190.7,130,190.7z" style="fill:url(#SVGID_2_)"/><path class="st3" d="M238,224.4l-2.4,6.7h-27.2c-1.9,0-3.7,0.2-5.4,0.6c-3.3,0.7-5.2,2-5.8,3.8c-0.3,0.9-0.3,1.7,0.2,2.4 c1.1,1.6,3.9,2.5,8.2,2.5h7.3c2.2,0,4.6,0.2,7.1,0.7c5,0.9,8.3,2.5,9.7,4.7c0.6,0.9,0.8,1.8,0.8,2.9c0,0.8-0.1,1.6-0.4,2.6 c-1.7,4.6-6.4,8-14.3,10.1c-4,1.1-7.9,1.7-11.4,1.8l-32.1,0.1l2.4-6.8h27.4c1.9,0,3.7-0.2,5.4-0.6c3.2-0.7,5.2-2,5.8-3.8 c0.3-0.9,0.2-1.7-0.2-2.4c-1.1-1.6-3.9-2.5-8.2-2.5h-7.6c-2.2,0-4.5-0.2-7.1-0.7c-5-0.9-8.3-2.5-9.7-4.7c-0.6-0.9-0.9-1.8-0.9-2.9 c0-0.8,0.2-1.6,0.5-2.6c1.7-4.6,6.4-8,14.2-10.1c4-1.1,7.9-1.7,11.5-1.8H238z"/><path class="st3" d="M289.5,225.3c5.7,1.3,9.7,3.5,11.8,6.6c1.1,1.6,1.6,3.5,1.6,5.7c0,1.7-0.3,3.6-1,5.6 c-2.9,8.3-9.6,14.1-19.9,17.4c-5.3,1.7-10.2,2.6-14.8,2.6H259c-2.4,0-5.1-0.3-8-1c-5.6-1.3-9.5-3.5-11.6-6.6 c-1.2-1.7-1.8-3.7-1.8-5.9c0-1.8,0.4-3.8,1.2-6c2.8-7.9,9.3-13.5,19.6-16.8c5.3-1.7,10.3-2.6,14.8-2.6h8.2 C283.8,224.3,286.5,224.6,289.5,225.3z M286.7,239.3c0-1.6-0.4-3.1-1.2-4.3c-1.1-1.6-2.8-2.7-5.2-3.4c-1.2-0.3-2.3-0.5-3.4-0.5h-5 c-2.1,0-4.5,0.6-7.1,1.7c-5,2.1-8.5,5.7-10.3,10.8c-0.6,1.7-0.9,3.3-0.9,4.7c0,1.6,0.4,3,1.2,4.2c1.1,1.6,2.8,2.8,5.2,3.4 c1.2,0.4,2.4,0.6,3.4,0.6h4.9c2.2,0,4.6-0.6,7.1-1.7c5-2.1,8.5-5.7,10.3-10.8C286.4,242.3,286.7,240.7,286.7,239.3z"/><path class="st3" d="M368.8,224.3l-2.4,6.8h-24c-1.7,0-3.6,0.4-5.6,1.1c-4,1.4-7.1,3.7-9.4,7l-0.8,1.2h36.6l-3.2,9.3h-37.2 l-4.8,13.5l-15.1,0.1l6.5-18.9c2.8-8.3,9.3-14.1,19.5-17.4c5.2-1.7,10.1-2.6,14.6-2.6L368.8,224.3z"/><path class="st3" d="M432.7,224.5l-13.5,38.7l-15,0.1l5.1-13.6h-24.7l-5.1,13.6l-14.9,0.1l6.7-19.1c2.8-8.2,9.3-13.9,19.5-17.2 c5.2-1.7,10.1-2.6,14.6-2.6L432.7,224.5z M415.4,231.1h-11.2c-2.2,0-4.7,0.6-7.3,1.7c-5.2,2.4-7.8,5.9-9.1,7.7l0,0h24.7 L415.4,231.1z"/><path class="st3" d="M494.3,224.3l-2.4,6.8h-24c-2.1,0-4.5,0.5-7,1.6c-5,2.1-8.3,5.7-10.1,10.8c-0.6,1.7-0.9,3.3-0.9,4.7 c0,1.6,0.4,3,1.2,4.2c1.1,1.6,2.8,2.8,5.1,3.4c1.2,0.3,2.3,0.5,3.4,0.6h23.5l-2.3,6.7h-25.6c-2.4,0-5.1-0.3-8-1 c-5.7-1.3-9.6-3.5-11.6-6.6c-1.1-1.7-1.6-3.6-1.6-5.7c0-1.8,0.4-3.6,1.1-5.6c2.8-8.2,9.3-14,19.5-17.3c5.2-1.8,10.1-2.6,14.6-2.6 H494.3z"/><g><path class="st4" d="M175.1,297.2c-1.1,0-2-0.4-2.6-1.2c-0.6-0.9-0.8-1.9-0.5-3l2.3-8.4c0.3-1.1,1-2,2-2.9c1.1-0.8,2.2-1.3,3.3-1.3 h12.7l-0.6,2.1h-8.5c-0.3,0-0.5,0.1-0.8,0.2c-0.3,0.1-0.6,0.3-0.8,0.5c-0.3,0.2-0.5,0.4-0.7,0.7c-0.2,0.2-0.3,0.5-0.4,0.8l-2.3,8.4 c-0.1,0.3-0.1,0.5,0,0.8s0.1,0.5,0.3,0.7c0.1,0.2,0.3,0.4,0.5,0.5c0.2,0.1,0.5,0.2,0.7,0.2h8.5l-0.6,2.1H175.1z"/><path class="st4" d="M203.1,288.8l0.6-2.1h-2.1c-0.3,0-0.6,0.1-0.8,0.2c-0.3,0.1-0.6,0.3-0.8,0.5c-0.3,0.2-0.5,0.4-0.7,0.7 c-0.2,0.3-0.3,0.5-0.4,0.8l-2.3,8.4h-6.4l2.3-8.4c0.3-1.1,1-2.1,2.1-2.9c1.1-0.9,2.2-1.3,3.3-1.3h12.7l-1.1,4.2H203.1z"/><path class="st4" d="M215.8,293c-0.1,0.5,0,1,0.3,1.5c0.3,0.4,0.7,0.6,1.3,0.6h8.5l-0.6,2.1h-12.7c-1.1,0-2-0.4-2.6-1.2 c-0.6-0.9-0.8-1.9-0.5-3l1.2-4.2c0.3-1.1,1-2.1,2-2.9c1.1-0.9,2.2-1.3,3.3-1.3h10.6c1.1,0,2,0.4,2.6,1.3c0.6,0.9,0.8,1.8,0.5,2.9 l-1.2,4.2H215.8z M223.4,288.8c0.1-0.5,0-1-0.3-1.4s-0.7-0.6-1.3-0.6h-2.2c-0.3,0-0.6,0.1-0.8,0.2c-0.3,0.1-0.6,0.3-0.8,0.5 c-0.3,0.2-0.5,0.4-0.7,0.7c-0.2,0.3-0.3,0.5-0.4,0.8l-0.6,2.1h6.4L223.4,288.8z M218.9,283.6l0.1-0.4l8.2-2.7l1.5,2.1L218.9,283.6z"/><path class="st4" d="M233.4,297.2c-1.1,0-2-0.4-2.6-1.2c-0.6-0.9-0.8-1.9-0.5-3l1.2-4.2c0.3-1.1,1-2.1,2-2.9 c1.1-0.9,2.2-1.3,3.3-1.3h8.5l1.1-4.2h6.4l-4.6,16.8H233.4z M244.7,286.7h-4.3c-0.3,0-0.6,0.1-0.8,0.2c-0.3,0.1-0.6,0.3-0.8,0.5 c-0.3,0.2-0.5,0.4-0.7,0.7s-0.3,0.5-0.4,0.8l-1.2,4.2c-0.1,0.3-0.1,0.5,0,0.8s0.1,0.5,0.3,0.7c0.1,0.2,0.3,0.4,0.5,0.5 c0.2,0.1,0.5,0.2,0.7,0.2h4.2L244.7,286.7z"/><path class="st4" d="M251,297.2l3.4-12.6h6.4l-3.4,12.6H251z M262.2,279.4c-0.3,0.8-0.8,1.6-1.6,2.2c-0.8,0.6-1.6,0.9-2.5,0.9 c-0.8,0-1.5-0.3-2-0.9c-0.5-0.7-0.6-1.4-0.3-2.2c0.2-0.8,0.7-1.5,1.5-2.2c0.8-0.6,1.7-1,2.5-1c0.8,0,1.5,0.3,1.9,1 C262.3,277.8,262.5,278.5,262.2,279.4z"/><path class="st4" d="M264.4,297.2c-1.1,0-2-0.4-2.6-1.2c-0.6-0.9-0.8-1.9-0.5-3l3.4-12.6h6.4l-1.1,4.2h6.4l-0.6,2.1h-6.4l-1.7,6.3 c-0.1,0.3-0.1,0.5,0,0.8s0.1,0.5,0.3,0.7c0.1,0.2,0.3,0.4,0.5,0.5c0.2,0.1,0.5,0.2,0.7,0.2h6.4l-0.6,2.1H264.4z"/><path class="st4" d="M307.4,293c-0.3,1.1-1,2.1-2.1,2.9c-1.1,0.8-2.2,1.3-3.3,1.3h-10.6c-1.1,0-2-0.4-2.6-1.2 c-0.6-0.9-0.8-1.9-0.5-3l0.1-0.4c0.2-0.9,0.7-1.6,1.4-2.3c0.7-0.7,1.5-1.2,2.3-1.6c-1.3-0.8-1.7-2.1-1.3-3.7l0.1-0.4 c0.3-1.1,1-2.1,2.1-2.9c1.1-0.8,2.2-1.3,3.3-1.3h12.3l-0.6,2.1h-8.1c-0.3,0-0.6,0.1-0.8,0.2s-0.6,0.3-0.8,0.5 c-0.3,0.2-0.5,0.4-0.7,0.7c-0.2,0.2-0.3,0.5-0.4,0.8l-0.3,1.1c-0.1,0.5,0,1,0.3,1.5c0.3,0.4,0.8,0.6,1.3,0.6h1.7l-0.6,2.1h-2.1 c-0.3,0-0.5,0.1-0.8,0.2c-0.3,0.1-0.6,0.3-0.8,0.5c-0.3,0.2-0.5,0.4-0.7,0.7c-0.2,0.2-0.3,0.5-0.4,0.8l-0.3,1.1 c-0.1,0.3-0.1,0.5,0,0.8c0,0.3,0.1,0.5,0.3,0.7c0.1,0.2,0.3,0.4,0.5,0.5c0.2,0.1,0.5,0.2,0.8,0.2h2.1c0.6,0,1.1-0.2,1.6-0.6 c0.6-0.4,0.9-0.9,1-1.5l1.4-5.2h6.4L307.4,293z"/><path class="st4" d="M323.6,297.2c-1.1,0-2-0.4-2.6-1.2c-0.6-0.9-0.8-1.9-0.5-3l3.4-12.6h6.4l-3.4,12.6c-0.1,0.3-0.1,0.5,0,0.8 c0,0.3,0.1,0.5,0.3,0.7c0.1,0.2,0.3,0.4,0.5,0.5c0.2,0.1,0.5,0.2,0.7,0.2h8.5l-0.6,2.1H323.6z"/><path class="st4" d="M345.3,293c-0.1,0.6,0,1.1,0.3,1.5c0.3,0.4,0.7,0.6,1.3,0.6h8.5l-0.6,2.1h-12.7c-1.1,0-2-0.4-2.6-1.2 c-0.6-0.9-0.8-1.9-0.5-3l1.2-4.2c0.3-1.1,1-2.1,2-2.9c1.1-0.9,2.2-1.3,3.3-1.3h10.6c1.1,0,1.9,0.4,2.6,1.3c0.6,0.9,0.8,1.8,0.5,2.9 l-1.2,4.2H345.3z M352.8,288.8c0.1-0.5,0-1-0.2-1.4c-0.3-0.4-0.7-0.6-1.3-0.6h-2.2c-0.3,0-0.6,0.1-0.8,0.2 c-0.3,0.1-0.6,0.3-0.8,0.5c-0.3,0.2-0.5,0.4-0.7,0.7c-0.2,0.3-0.3,0.5-0.4,0.8l-0.6,2.1h6.4L352.8,288.8z"/><path class="st4" d="M379.5,293c-0.3,1.1-1,2.1-2.1,2.9c-1.1,0.8-2.2,1.3-3.3,1.3h-10.6c-1.1,0-2-0.4-2.6-1.2 c-0.6-0.8-0.8-1.8-0.5-3c0.3-1.1,1-2.1,2.1-2.9c1.1-0.9,2.2-1.3,3.3-1.3h8.5c0-0.3,0-0.5,0-0.8c0-0.3-0.1-0.5-0.3-0.7 c-0.1-0.2-0.3-0.3-0.5-0.5c-0.2-0.1-0.5-0.2-0.7-0.2h-8.5l0.6-2.1h12.8c1.1,0,2,0.4,2.6,1.3c0.6,0.9,0.8,1.8,0.5,2.9L379.5,293z M373.7,290.9h-4.3c-0.3,0-0.5,0.1-0.8,0.2s-0.5,0.3-0.8,0.5s-0.5,0.4-0.7,0.7c-0.2,0.3-0.3,0.5-0.4,0.8c-0.1,0.3-0.1,0.5,0,0.8 s0.1,0.5,0.3,0.7c0.1,0.2,0.3,0.4,0.5,0.5c0.2,0.1,0.5,0.2,0.8,0.2h2.1c0.6,0,1.1-0.2,1.6-0.6c0.6-0.4,0.9-0.9,1-1.5L373.7,290.9z"/><path class="st4" d="M401,294c-0.3,1.1-1,1.9-2.1,2.4c-0.9,0.5-1.9,0.7-3,0.7H381l0.6-2.1h11.7c0.3,0,0.5-0.1,0.8-0.3 c0.3-0.2,0.4-0.5,0.5-0.7c0.1-0.5-0.8-1-2.9-1.4c-1.5-0.3-2.7-0.5-3.7-0.8c-1-0.2-1.6-0.4-2.1-0.6c-2-0.8-2.8-2-2.4-3.5 c0.3-1.1,1-1.9,2-2.4c0.9-0.5,1.9-0.7,3.1-0.7h14.9l-0.6,2.1h-11.7c-0.3,0-0.6,0.1-0.8,0.3c-0.3,0.2-0.4,0.5-0.5,0.8 c-0.1,0.5,0.8,1,2.9,1.4c3,0.6,4.9,1.1,5.8,1.4C400.6,291.4,401.4,292.5,401,294z"/><path class="st4" d="M402.8,297.2l3.4-12.6h6.4l-3.4,12.6H402.8z M414,279.4c-0.3,0.8-0.8,1.6-1.6,2.2c-0.8,0.6-1.6,0.9-2.5,0.9 c-0.8,0-1.5-0.3-2-0.9c-0.5-0.7-0.6-1.4-0.3-2.2c0.2-0.8,0.7-1.5,1.5-2.2c0.8-0.6,1.7-1,2.5-1c0.8,0,1.5,0.3,1.9,1 C414.1,277.8,414.3,278.5,414,279.4z"/><path class="st4" d="M424.7,297.2l2.3-8.4c0.1-0.5,0.1-1-0.2-1.4c-0.3-0.4-0.7-0.6-1.3-0.6h-4.3l-2.8,10.5H412l3.4-12.6h14.9 c1.1,0,1.9,0.4,2.6,1.3c0.6,0.9,0.8,1.8,0.5,2.9l-2.3,8.4H424.7z"/><path class="st4" d="M452.8,297.2c-0.3,1-1,2-2.1,2.9c-1.1,0.9-2.2,1.3-3.3,1.3h-12.8l0.6-2.1h8.5c0.6,0,1.1-0.2,1.6-0.6 c0.5-0.4,0.9-0.8,1.1-1.4h-8.5c-1.1,0-2-0.4-2.6-1.2c-0.6-0.8-0.8-1.8-0.5-3l1.2-4.2c0.3-1.1,1-2.1,2-2.9c1.1-0.9,2.2-1.3,3.3-1.3 h14.9L452.8,297.2z M449.2,286.7H445c-0.3,0-0.6,0.1-0.8,0.2c-0.3,0.1-0.6,0.3-0.8,0.5c-0.3,0.2-0.5,0.4-0.7,0.7 c-0.2,0.3-0.3,0.5-0.4,0.8l-1.2,4.2c-0.1,0.3-0.1,0.5,0,0.8s0.1,0.5,0.3,0.7c0.1,0.2,0.3,0.4,0.5,0.5c0.2,0.1,0.5,0.2,0.8,0.2h4.2 L449.2,286.7z"/></g></svg>