<svg version="1.1" id="Layer_1" xmlns="http://www.w3.org/2000/svg" x="0px" y="0px" viewBox="0 0 190.1 58.8" style="enable-background:new 0 0 190.1 58.8" xml:space="preserve"><style>.st2{fill:#020303}</style><path d="M58.7,58.8V40.6L89.8,21l0.2,17.1c0,0,0.2,0.6-2.3,2.2L58.7,58.8" style="fill:#19A4DD"/><path d="M58.5,0v17.3l19.7,12.3L89.8,21c0,0,0-1.6-2.8-3.5L58.5,0" style="fill:#F15E25"/><path class="st2" d="M27.7,42.5h-6v-23h6V42.5"/><path class="st2" d="M46.8,19.5v9.2h-8.6v-9.2h-6v23h6V32.1h8.6v10.4h6v-23H46.8"/><path class="st2" d="M8.8,42.5c-2.3,0-4.3-0.8-5.7-2.3c-3-3.1-3.1-8.3-3-9.5c-0.4-10.5,8.7-11.1,8.8-11.1l0.1,0h8.9v4H9	c-0.9,0.1-5.2,0.8-5,7l0,0.1l0,0.1c-0.1,1.7,0.3,4.9,1.9,6.6c0.7,0.8,1.7,1.1,3,1.1l0,1.9v-1.9h9.8v4H8.9	C8.9,42.5,8.8,42.5,8.8,42.5"/><path class="st2" d="M102.2,32.4v5.7h4.4c1.7,0,2.8,0,3.3-0.1c0.7-0.1,1.3-0.4,1.7-0.9s0.7-1.1,0.7-1.8c0-0.6-0.2-1.2-0.5-1.6	c-0.3-0.4-0.8-0.8-1.5-1c-0.7-0.2-2.1-0.3-4.2-0.3H102.2z M102.2,23.8v5h3.1c1.9,0,3,0,3.5-0.1c0.8-0.1,1.5-0.3,1.9-0.8	c0.5-0.4,0.7-1,0.7-1.7c0-0.7-0.2-1.2-0.6-1.6c-0.4-0.4-1-0.7-1.8-0.8c-0.5,0-1.8-0.1-4.1-0.1H102.2z M97.4,20.3h9.4	c1.9,0,3.3,0.1,4.2,0.2c0.9,0.1,1.7,0.4,2.5,0.9c0.7,0.4,1.3,1,1.8,1.8c0.5,0.7,0.7,1.6,0.7,2.5c0,1-0.3,1.9-0.9,2.8	c-0.6,0.8-1.4,1.5-2.4,1.9c1.4,0.4,2.5,1,3.3,1.9s1.2,2,1.2,3.2c0,1-0.2,1.9-0.7,2.9c-0.5,0.9-1.2,1.7-2,2.2s-1.9,0.9-3.2,1	c-0.8,0.1-2.7,0.1-5.7,0.1h-8V20.3"/><path class="st2" d="M133.7,33.3l-3.2-8l-3.2,8H133.7z M142.5,41.8h-5.2l-2.1-4.9h-9.4l-1.9,4.9h-5.1l9.2-21.5h5L142.5,41.8"/><path class="st2" d="M145,41.8V20.3h4.6l9.7,14.4V20.3h4.4v21.5H159l-9.5-14v14H145"/><path class="st2" d="M168.8,41.8V20.3h4.8v9.5l9.6-9.5h6.4l-8.9,8.4l9.4,13.1h-6.2l-6.5-10.1l-3.9,3.6v6.5H168.8"/></svg>